<mxfile host="app.diagrams.net" modified="2020-05-08T10:03:04.398Z" agent="5.0 (Windows NT 10.0; Win64; x64) AppleWebKit/537.36 (KHTML, like Gecko) Chrome/80.0.3987.163 Safari/537.36" etag="ty1R-Lv4UoMbARKrkDND" version="13.0.9" type="github">
  <diagram id="33-8tKD1pAXIAg7gAdcv" name="第 1 页">
    <mxGraphModel dx="1038" dy="544" grid="1" gridSize="10" guides="1" tooltips="1" connect="1" arrows="1" fold="1" page="1" pageScale="1" pageWidth="1920" pageHeight="1200" math="0" shadow="0">
      <root>
        <mxCell id="0" />
        <mxCell id="1" parent="0" />
        <mxCell id="IiI1S-2rMs7hSp387NDn-43" value="" style="rounded=0;whiteSpace=wrap;html=1;fillColor=none;dashed=1;strokeColor=#FF6666;strokeWidth=2;" parent="1" vertex="1">
          <mxGeometry x="700" y="620" width="670" height="160" as="geometry" />
        </mxCell>
        <mxCell id="IiI1S-2rMs7hSp387NDn-5" value="" style="rounded=0;whiteSpace=wrap;html=1;fillColor=none;dashed=1;" parent="1" vertex="1">
          <mxGeometry x="510" y="210" width="240" height="90" as="geometry" />
        </mxCell>
        <mxCell id="IiI1S-2rMs7hSp387NDn-2" value="&lt;font style=&quot;font-size: 20px&quot;&gt;Kafka Cluster&lt;/font&gt;" style="ellipse;shape=cloud;whiteSpace=wrap;html=1;" parent="1" vertex="1">
          <mxGeometry x="515" y="86" width="210" height="90" as="geometry" />
        </mxCell>
        <mxCell id="IiI1S-2rMs7hSp387NDn-4" value="&lt;font style=&quot;font-size: 18px&quot;&gt;Rtc-kudubridge&lt;/font&gt;" style="shape=process;whiteSpace=wrap;html=1;backgroundOutline=1;" parent="1" vertex="1">
          <mxGeometry x="520" y="220" width="170" height="50" as="geometry" />
        </mxCell>
        <mxCell id="IiI1S-2rMs7hSp387NDn-6" value="" style="endArrow=classic;html=1;exitX=0.55;exitY=0.95;exitDx=0;exitDy=0;exitPerimeter=0;entryX=0.5;entryY=0;entryDx=0;entryDy=0;" parent="1" source="IiI1S-2rMs7hSp387NDn-2" target="IiI1S-2rMs7hSp387NDn-5" edge="1">
          <mxGeometry width="50" height="50" relative="1" as="geometry">
            <mxPoint x="850" y="190" as="sourcePoint" />
            <mxPoint x="900" y="140" as="targetPoint" />
          </mxGeometry>
        </mxCell>
        <mxCell id="IiI1S-2rMs7hSp387NDn-18" value="" style="endArrow=classic;html=1;exitX=0.75;exitY=1;exitDx=0;exitDy=0;entryX=0.25;entryY=0;entryDx=0;entryDy=0;" parent="1" source="IiI1S-2rMs7hSp387NDn-5" target="IiI1S-2rMs7hSp387NDn-16" edge="1">
          <mxGeometry width="50" height="50" relative="1" as="geometry">
            <mxPoint x="870" y="360" as="sourcePoint" />
            <mxPoint x="920" y="310" as="targetPoint" />
          </mxGeometry>
        </mxCell>
        <mxCell id="IiI1S-2rMs7hSp387NDn-19" value="&lt;font style=&quot;font-size: 18px&quot;&gt;Rtc-kudubridge&lt;/font&gt;" style="shape=process;whiteSpace=wrap;html=1;backgroundOutline=1;" parent="1" vertex="1">
          <mxGeometry x="565" y="240" width="170" height="50" as="geometry" />
        </mxCell>
        <mxCell id="IiI1S-2rMs7hSp387NDn-23" value="" style="group" parent="1" vertex="1" connectable="0">
          <mxGeometry x="600" y="340" width="360" height="240" as="geometry" />
        </mxCell>
        <mxCell id="IiI1S-2rMs7hSp387NDn-16" value="" style="rounded=0;whiteSpace=wrap;html=1;fillColor=none;dashed=1;" parent="IiI1S-2rMs7hSp387NDn-23" vertex="1">
          <mxGeometry width="360" height="240" as="geometry" />
        </mxCell>
        <mxCell id="IiI1S-2rMs7hSp387NDn-7" value="&lt;font style=&quot;font-size: 20px&quot;&gt;Master&lt;/font&gt;" style="rounded=1;whiteSpace=wrap;html=1;fillColor=#ffffff;" parent="IiI1S-2rMs7hSp387NDn-23" vertex="1">
          <mxGeometry x="10" y="20" width="100" height="50" as="geometry" />
        </mxCell>
        <mxCell id="IiI1S-2rMs7hSp387NDn-8" value="&lt;font style=&quot;font-size: 20px&quot;&gt;Master&lt;/font&gt;" style="rounded=1;whiteSpace=wrap;html=1;fillColor=#ffffff;" parent="IiI1S-2rMs7hSp387NDn-23" vertex="1">
          <mxGeometry x="130" y="20" width="100" height="50" as="geometry" />
        </mxCell>
        <mxCell id="IiI1S-2rMs7hSp387NDn-9" value="&lt;font style=&quot;font-size: 20px&quot;&gt;Master&lt;/font&gt;" style="rounded=1;whiteSpace=wrap;html=1;fillColor=#ffffff;" parent="IiI1S-2rMs7hSp387NDn-23" vertex="1">
          <mxGeometry x="250" y="20" width="100" height="50" as="geometry" />
        </mxCell>
        <mxCell id="IiI1S-2rMs7hSp387NDn-10" value="" style="endArrow=none;html=1;exitX=1;exitY=0.5;exitDx=0;exitDy=0;entryX=0;entryY=0.5;entryDx=0;entryDy=0;" parent="IiI1S-2rMs7hSp387NDn-23" source="IiI1S-2rMs7hSp387NDn-7" target="IiI1S-2rMs7hSp387NDn-8" edge="1">
          <mxGeometry width="50" height="50" relative="1" as="geometry">
            <mxPoint x="110" y="130" as="sourcePoint" />
            <mxPoint x="160" y="80" as="targetPoint" />
          </mxGeometry>
        </mxCell>
        <mxCell id="IiI1S-2rMs7hSp387NDn-11" value="" style="endArrow=none;html=1;exitX=1;exitY=0.5;exitDx=0;exitDy=0;entryX=0;entryY=0.5;entryDx=0;entryDy=0;" parent="IiI1S-2rMs7hSp387NDn-23" source="IiI1S-2rMs7hSp387NDn-8" target="IiI1S-2rMs7hSp387NDn-9" edge="1">
          <mxGeometry width="50" height="50" relative="1" as="geometry">
            <mxPoint x="240" y="150" as="sourcePoint" />
            <mxPoint x="290" y="100" as="targetPoint" />
          </mxGeometry>
        </mxCell>
        <mxCell id="IiI1S-2rMs7hSp387NDn-12" value="&lt;font style=&quot;font-size: 20px&quot;&gt;TServer&lt;/font&gt;" style="rounded=1;whiteSpace=wrap;html=1;fillColor=#fff2cc;strokeColor=#d6b656;" parent="IiI1S-2rMs7hSp387NDn-23" vertex="1">
          <mxGeometry x="10" y="120" width="100" height="50" as="geometry" />
        </mxCell>
        <mxCell id="IiI1S-2rMs7hSp387NDn-13" value="&lt;font style=&quot;font-size: 20px&quot;&gt;TServer&lt;/font&gt;" style="rounded=1;whiteSpace=wrap;html=1;fillColor=#fff2cc;strokeColor=#d6b656;" parent="IiI1S-2rMs7hSp387NDn-23" vertex="1">
          <mxGeometry x="130" y="120" width="100" height="50" as="geometry" />
        </mxCell>
        <mxCell id="IiI1S-2rMs7hSp387NDn-14" value="&lt;font style=&quot;font-size: 20px&quot;&gt;TServer&lt;/font&gt;" style="rounded=1;whiteSpace=wrap;html=1;fillColor=#fff2cc;strokeColor=#d6b656;" parent="IiI1S-2rMs7hSp387NDn-23" vertex="1">
          <mxGeometry x="250" y="120" width="100" height="50" as="geometry" />
        </mxCell>
        <mxCell id="IiI1S-2rMs7hSp387NDn-15" value="" style="shape=curlyBracket;whiteSpace=wrap;html=1;rounded=1;fillColor=#ffffff;rotation=-90;" parent="IiI1S-2rMs7hSp387NDn-23" vertex="1">
          <mxGeometry x="170" y="-35" width="20" height="255" as="geometry" />
        </mxCell>
        <mxCell id="IiI1S-2rMs7hSp387NDn-20" value="Disk" style="shape=cylinder;whiteSpace=wrap;html=1;boundedLbl=1;backgroundOutline=1;fillColor=#ffffff;" parent="IiI1S-2rMs7hSp387NDn-23" vertex="1">
          <mxGeometry x="125" y="200" width="110" height="30" as="geometry" />
        </mxCell>
        <mxCell id="IiI1S-2rMs7hSp387NDn-22" value="" style="shape=curlyBracket;whiteSpace=wrap;html=1;rounded=1;fillColor=#ffffff;rotation=-90;" parent="IiI1S-2rMs7hSp387NDn-23" vertex="1">
          <mxGeometry x="170" y="60" width="20" height="255" as="geometry" />
        </mxCell>
        <mxCell id="IiI1S-2rMs7hSp387NDn-24" value="&lt;font style=&quot;font-size: 20px&quot;&gt;Presto Cluster&lt;/font&gt;" style="ellipse;shape=cloud;whiteSpace=wrap;html=1;fillColor=#ffffff;" parent="1" vertex="1">
          <mxGeometry x="910" y="150" width="220" height="90" as="geometry" />
        </mxCell>
        <mxCell id="IiI1S-2rMs7hSp387NDn-25" value="" style="endArrow=classic;html=1;exitX=0.55;exitY=0.95;exitDx=0;exitDy=0;exitPerimeter=0;entryX=0.75;entryY=0;entryDx=0;entryDy=0;" parent="1" source="IiI1S-2rMs7hSp387NDn-24" target="IiI1S-2rMs7hSp387NDn-16" edge="1">
          <mxGeometry width="50" height="50" relative="1" as="geometry">
            <mxPoint x="1110" y="380" as="sourcePoint" />
            <mxPoint x="1160" y="330" as="targetPoint" />
          </mxGeometry>
        </mxCell>
        <mxCell id="IiI1S-2rMs7hSp387NDn-26" value="&lt;font style=&quot;font-size: 20px&quot;&gt;Hive（HDFS）&lt;/font&gt;" style="shape=cylinder;whiteSpace=wrap;html=1;boundedLbl=1;backgroundOutline=1;fillColor=#ffffff;" parent="1" vertex="1">
          <mxGeometry x="1020" y="340" width="200" height="60" as="geometry" />
        </mxCell>
        <mxCell id="IiI1S-2rMs7hSp387NDn-27" value="" style="endArrow=classic;html=1;exitX=0.55;exitY=0.95;exitDx=0;exitDy=0;exitPerimeter=0;entryX=0.5;entryY=0;entryDx=0;entryDy=0;" parent="1" source="IiI1S-2rMs7hSp387NDn-24" target="IiI1S-2rMs7hSp387NDn-26" edge="1">
          <mxGeometry width="50" height="50" relative="1" as="geometry">
            <mxPoint x="1260" y="270" as="sourcePoint" />
            <mxPoint x="1310" y="220" as="targetPoint" />
          </mxGeometry>
        </mxCell>
        <mxCell id="IiI1S-2rMs7hSp387NDn-28" value="&lt;font style=&quot;font-size: 15px&quot;&gt;HBase&lt;/font&gt;" style="shape=cylinder;whiteSpace=wrap;html=1;boundedLbl=1;backgroundOutline=1;fillColor=#ffffff;" parent="1" vertex="1">
          <mxGeometry x="1190" y="115" width="80" height="40" as="geometry" />
        </mxCell>
        <mxCell id="IiI1S-2rMs7hSp387NDn-29" value="&lt;font style=&quot;font-size: 15px&quot;&gt;Oracle&lt;/font&gt;" style="shape=cylinder;whiteSpace=wrap;html=1;boundedLbl=1;backgroundOutline=1;fillColor=#ffffff;" parent="1" vertex="1">
          <mxGeometry x="1190" y="175" width="80" height="40" as="geometry" />
        </mxCell>
        <mxCell id="IiI1S-2rMs7hSp387NDn-33" value="&lt;font style=&quot;font-size: 15px&quot;&gt;Kafka&lt;/font&gt;" style="shape=cylinder;whiteSpace=wrap;html=1;boundedLbl=1;backgroundOutline=1;fillColor=#ffffff;" parent="1" vertex="1">
          <mxGeometry x="1190" y="235" width="80" height="40" as="geometry" />
        </mxCell>
        <mxCell id="IiI1S-2rMs7hSp387NDn-34" value="" style="shape=curlyBracket;whiteSpace=wrap;html=1;rounded=1;fillColor=#ffffff;" parent="1" vertex="1">
          <mxGeometry x="1140" y="130" width="30" height="130" as="geometry" />
        </mxCell>
        <mxCell id="IiI1S-2rMs7hSp387NDn-35" value="&lt;font style=&quot;font-size: 20px&quot;&gt;Kudu&lt;/font&gt;" style="text;html=1;strokeColor=#6c8ebf;fillColor=#dae8fc;align=center;verticalAlign=middle;whiteSpace=wrap;rounded=0;" parent="1" vertex="1">
          <mxGeometry x="520" y="440" width="70" height="30" as="geometry" />
        </mxCell>
        <mxCell id="IiI1S-2rMs7hSp387NDn-36" value="&lt;font style=&quot;font-size: 20px&quot;&gt;Presto Cluster&lt;/font&gt;" style="ellipse;shape=cloud;whiteSpace=wrap;html=1;fillColor=#ffffff;" parent="1" vertex="1">
          <mxGeometry x="692" y="630" width="220" height="90" as="geometry" />
        </mxCell>
        <mxCell id="IiI1S-2rMs7hSp387NDn-37" value="&lt;font style=&quot;font-size: 20px&quot;&gt;Apollo&lt;/font&gt;" style="rounded=1;whiteSpace=wrap;html=1;fillColor=#ffffff;" parent="1" vertex="1">
          <mxGeometry x="990" y="650" width="100" height="50" as="geometry" />
        </mxCell>
        <mxCell id="IiI1S-2rMs7hSp387NDn-38" value="" style="endArrow=classic;html=1;exitX=0.4;exitY=0.1;exitDx=0;exitDy=0;exitPerimeter=0;entryX=0.5;entryY=1;entryDx=0;entryDy=0;" parent="1" source="IiI1S-2rMs7hSp387NDn-36" target="IiI1S-2rMs7hSp387NDn-16" edge="1">
          <mxGeometry width="50" height="50" relative="1" as="geometry">
            <mxPoint x="790" y="830" as="sourcePoint" />
            <mxPoint x="840" y="780" as="targetPoint" />
          </mxGeometry>
        </mxCell>
        <mxCell id="IiI1S-2rMs7hSp387NDn-39" value="" style="endArrow=classic;html=1;entryX=0.875;entryY=0.5;entryDx=0;entryDy=0;entryPerimeter=0;exitX=0;exitY=0.5;exitDx=0;exitDy=0;" parent="1" source="IiI1S-2rMs7hSp387NDn-37" target="IiI1S-2rMs7hSp387NDn-36" edge="1">
          <mxGeometry width="50" height="50" relative="1" as="geometry">
            <mxPoint x="940" y="780" as="sourcePoint" />
            <mxPoint x="990" y="730" as="targetPoint" />
          </mxGeometry>
        </mxCell>
        <mxCell id="IiI1S-2rMs7hSp387NDn-40" value="&lt;font style=&quot;font-size: 20px&quot;&gt;Hive Assistant&lt;/font&gt;" style="shape=process;whiteSpace=wrap;html=1;backgroundOutline=1;fillColor=#ffffff;" parent="1" vertex="1">
          <mxGeometry x="1160" y="645" width="190" height="60" as="geometry" />
        </mxCell>
        <mxCell id="IiI1S-2rMs7hSp387NDn-41" value="" style="endArrow=classic;html=1;exitX=0;exitY=0.5;exitDx=0;exitDy=0;entryX=1;entryY=0.5;entryDx=0;entryDy=0;" parent="1" source="IiI1S-2rMs7hSp387NDn-40" target="IiI1S-2rMs7hSp387NDn-37" edge="1">
          <mxGeometry width="50" height="50" relative="1" as="geometry">
            <mxPoint x="1000" y="810" as="sourcePoint" />
            <mxPoint x="1050" y="760" as="targetPoint" />
          </mxGeometry>
        </mxCell>
        <mxCell id="IiI1S-2rMs7hSp387NDn-42" value="&lt;font style=&quot;font-size: 15px&quot;&gt;Permissions and partition restrictions&lt;/font&gt;" style="text;html=1;strokeColor=#d79b00;fillColor=#ffe6cc;align=center;verticalAlign=middle;whiteSpace=wrap;rounded=0;" parent="1" vertex="1">
          <mxGeometry x="860" y="720" width="300" height="30" as="geometry" />
        </mxCell>
        <mxCell id="xgc5zKed_omzo67c4VnX-1" value="&lt;font style=&quot;font-size: 18px&quot;&gt;Partition M&lt;/font&gt;&lt;span style=&quot;font-family: &amp;#34;microsoft yahei&amp;#34; , &amp;#34;arial&amp;#34; , &amp;#34;helvetica&amp;#34; , sans-serif ; font-size: 14px ; text-align: left ; background-color: rgb(255 , 255 , 255)&quot;&gt;aintain&lt;/span&gt;" style="rounded=1;whiteSpace=wrap;html=1;" vertex="1" parent="1">
          <mxGeometry x="1035" y="500" width="155" height="40" as="geometry" />
        </mxCell>
        <mxCell id="xgc5zKed_omzo67c4VnX-3" value="" style="edgeStyle=elbowEdgeStyle;elbow=vertical;endArrow=classic;html=1;entryX=0.75;entryY=0;entryDx=0;entryDy=0;exitX=0.5;exitY=1;exitDx=0;exitDy=0;" edge="1" parent="1" source="xgc5zKed_omzo67c4VnX-1" target="IiI1S-2rMs7hSp387NDn-37">
          <mxGeometry width="50" height="50" relative="1" as="geometry">
            <mxPoint x="1180" y="580" as="sourcePoint" />
            <mxPoint x="1130" y="550" as="targetPoint" />
          </mxGeometry>
        </mxCell>
        <mxCell id="xgc5zKed_omzo67c4VnX-5" value="" style="edgeStyle=elbowEdgeStyle;elbow=vertical;endArrow=classic;html=1;entryX=1;entryY=0.75;entryDx=0;entryDy=0;exitX=0.25;exitY=0;exitDx=0;exitDy=0;" edge="1" parent="1" source="IiI1S-2rMs7hSp387NDn-37" target="IiI1S-2rMs7hSp387NDn-16">
          <mxGeometry width="50" height="50" relative="1" as="geometry">
            <mxPoint x="990" y="590" as="sourcePoint" />
            <mxPoint x="1040" y="540" as="targetPoint" />
            <Array as="points">
              <mxPoint x="1000" y="520" />
            </Array>
          </mxGeometry>
        </mxCell>
      </root>
    </mxGraphModel>
  </diagram>
</mxfile>
